<?xml version="1.0" encoding="UTF-8" standalone="no"?>
<!-- Generator: Adobe Illustrator 17.0.0, SVG Export Plug-In . SVG Version: 6.00 Build 0)  -->

<svg
   xmlns:dc="http://purl.org/dc/elements/1.1/"
   xmlns:cc="http://creativecommons.org/ns#"
   xmlns:rdf="http://www.w3.org/1999/02/22-rdf-syntax-ns#"
   xmlns:svg="http://www.w3.org/2000/svg"
   xmlns="http://www.w3.org/2000/svg"
   xmlns:sodipodi="http://sodipodi.sourceforge.net/DTD/sodipodi-0.dtd"
   xmlns:inkscape="http://www.inkscape.org/namespaces/inkscape"
   version="1.1"
   id="Layer_1"
   x="0px"
   y="0px"
   width="42px"
   height="42px"
   viewBox="0 0 42 42"
   enable-background="new 0 0 42 42"
   xml:space="preserve"
   inkscape:version="0.48.4 r9939"
   sodipodi:docname="TextToPDF.svg"
   inkscape:export-filename="D:\Documents\Developpements\Java\TextDocumentManagerPdiPlugin\src\org\pentaho\di\ui\trans\steps\images\TextToPDF.png"
   inkscape:export-xdpi="68"
   inkscape:export-ydpi="68"><metadata
   id="metadata3190"><rdf:RDF><cc:Work
       rdf:about=""><dc:format>image/svg+xml</dc:format><dc:type
         rdf:resource="http://purl.org/dc/dcmitype/StillImage" /><dc:title></dc:title></cc:Work></rdf:RDF></metadata><defs
   id="defs3188">
	
	
	
	
	
	
	
	
	
	
	
</defs><sodipodi:namedview
   pagecolor="#ffffff"
   bordercolor="#666666"
   borderopacity="1"
   objecttolerance="10"
   gridtolerance="10"
   guidetolerance="10"
   inkscape:pageopacity="0"
   inkscape:pageshadow="2"
   inkscape:window-width="1920"
   inkscape:window-height="1018"
   id="namedview3186"
   showgrid="false"
   inkscape:zoom="24.997224"
   inkscape:cx="30.772678"
   inkscape:cy="20.546373"
   inkscape:window-x="-8"
   inkscape:window-y="-8"
   inkscape:window-maximized="1"
   inkscape:current-layer="Layer_1" />
<polygon
   style="fill:#3d6480"
   id="polygon3164"
   points="11.586,5.247 9.685,5.247 9.685,8.33 4.461,3.106 3.118,4.45 8.342,9.675 5.198,9.675 5.198,11.576 11.586,11.575 " /><path
   style="fill:#eff9fe"
   inkscape:connector-curvature="0"
   id="path3166"
   d="m 29.7,32.996 -0.058,-24.412 -10.207,0 -7.429,7.429 0,16.982 17.694,0 z"
   sodipodi:nodetypes="ccccccc" /><polygon
   style="fill:#3d6480"
   id="polygon3168"
   points="29.642,8.584 29.7,32.996 12.006,32.996 12.006,16.014 10.306,17.714 10.306,34.695 31.404,34.695 31.338,6.885 21.134,6.885 19.435,8.584 " />
<g
   style="font-size:10.26576042px;font-style:normal;font-weight:normal;text-align:start;line-height:125%;letter-spacing:0px;word-spacing:0px;text-anchor:start;fill:#3d6480;fill-opacity:1;stroke:#3d6480;stroke-width:68.8817215;stroke-miterlimit:4;stroke-opacity:1;stroke-dasharray:none;font-family:Sans"
   transform="matrix(0.01451765,0,0,0.01451763,13.394641,15.283433)"
   id="g3092"><path
     d="M 560.85,11.2 C 526.91,14.74 549.61,-5.87 271.01,272.31 133.16,409.95 18.64,525.72 16.56,529.88 c -8.75,16.66 -8.75,41.23 0,57.89 4.79,9.16 387.92,392.08 396.66,396.45 16.24,8.12 41.02,7.71 57.05,-0.62 C 480.69,978.19 975.01,483.03 980.42,472.62 989.79,454.5 990,451.59 990,255.86 L 990,70.54 985.21,58.67 C 976.88,37.85 962.31,23.27 941.48,14.94 L 929.61,10.15 753.66,9.94 C 656.84,9.74 570.01,10.37 560.85,11.2 z"
     id="path3096"
     inkscape:connector-curvature="0"
     style="fill:#ff0000;fill-opacity:0;stroke:#3d6480;stroke-width:68.8817215;stroke-miterlimit:4;stroke-opacity:1;stroke-dasharray:none"
     sodipodi:nodetypes="csccsccscccccc" /><path
     sodipodi:type="arc"
     style="color:#000000;fill:none;stroke:#3d6480;stroke-width:0.44478697;stroke-linecap:square;stroke-linejoin:miter;stroke-miterlimit:4;stroke-opacity:1;stroke-dasharray:none;stroke-dashoffset:0;marker:none;visibility:visible;display:inline;overflow:visible;enable-background:accumulate"
     id="path3905"
     sodipodi:cx="19.522167"
     sodipodi:cy="21.677744"
     sodipodi:rx="0.52005774"
     sodipodi:ry="0.52005774"
     d="m 20.042225,21.677744 a 0.52005774,0.52005774 0 1 1 -1.040116,0 0.52005774,0.52005774 0 1 1 1.040116,0 z"
     transform="matrix(154.86444,0,0,154.86456,-2223.0811,-3162.5887)" /></g></svg>